<svg xmlns="http://www.w3.org/2000/svg" xmlns:xlink="http://www.w3.org/1999/xlink" width="214" height="31"><defs><path id="a" d="M.016.143h8.538v8.29H.016z"/><path id="c" d="M.077.143h30.88V31H.077z"/><path id="e" d="M0 .069h35.215v30.87H0z"/></defs><g fill="none" fill-rule="evenodd"><g transform="translate(-170 -86)"><g><g><g transform="translate(170 86)"><g><g transform="translate(205.371 22.389)"><mask id="b" fill="#fff"><use xlink:href="#a"/></mask><path fill="#FEFEFE" d="M3.277 4.007h.373c.53 0 .86-.02.989-.059a.587.587 0 00.302-.208.541.541 0 00.113-.339.52.52 0 00-.109-.326.597.597 0 00-.31-.207c-.133-.04-.462-.061-.985-.061h-.373v1.2zm-.92 2.5V2.108h.92a44.4 44.4 0 011.448.01c.304.025.542.084.711.176.17.092.31.233.423.421.114.19.17.401.17.632 0 .316-.106.587-.32.813-.214.227-.514.365-.9.421.136.05.243.105.317.164.074.06.177.172.306.338.035.043.145.222.335.536l.535.886H5.166l-.38-.712c-.256-.48-.468-.784-.636-.907-.165-.124-.379-.187-.635-.187h-.238v1.806h-.92zM4.29.955c-.588 0-1.151.142-1.69.427A3.15 3.15 0 001.33 2.61a3.274 3.274 0 00-.466 1.677c0 .582.152 1.136.454 1.663a3.2 3.2 0 001.267 1.233 3.516 3.516 0 003.415 0c.54-.295.963-.707 1.267-1.233.304-.527.457-1.081.457-1.663 0-.584-.154-1.143-.465-1.677a3.145 3.145 0 00-1.276-1.228A3.588 3.588 0 004.291.956zM4.285.143a4.43 4.43 0 012.106.534 3.904 3.904 0 011.587 1.528c.384.665.576 1.36.576 2.083 0 .722-.188 1.412-.565 2.065A3.976 3.976 0 016.41 7.884a4.395 4.395 0 01-4.252 0 3.972 3.972 0 01-1.577-1.53 4.078 4.078 0 01-.565-2.066c0-.724.192-1.418.577-2.083A3.91 3.91 0 012.177.677 4.444 4.444 0 014.285.143z" mask="url(#b)"/></g><path fill="#FEFEFE" d="M169.437 19.507c-.945.402-1.93.757-2.95 1.064-1.33.417-3.226.978-3.226 2.798 0 1.435.942 2.177 2.23 2.177 1.42 0 2.922-.87 3.537-2.265.276-.635.409-1.46.409-2.47v-1.304zm9.666 2.936l7.082-.018c.708-.002 1.38.345 1.765 1.104.809 1.592 1.696 2.116 3.593 2.116 1.37 0 3.4-.586 3.4-2.403 0-2.111-3.304-2.37-4.641-2.64-2.97-.6-5.035-1.14-6.19-1.65-1.155-.508-2.13-1.36-2.92-2.558-.795-1.197-1.19-2.567-1.19-4.109 0-6.462 5.873-7.98 10.845-7.98 5.523 0 9.526 1.82 11.534 7.72l-7.416.022c-.671.002-1.295-.739-1.473-1.037-.637-1.066-1.725-1.538-3.068-1.538-1.213 0-2.769.418-2.769 2.018 0 1.968 3.287 2.119 4.498 2.288 2.84.369 4.956.877 6.34 1.534 1.392.655 2.453 1.59 3.185 2.813.739 1.213 1.104 2.55 1.104 4.01 0 1.476-.39 2.909-1.169 4.305-2.124 3.813-6.027 4.56-9.812 4.56-6.117 0-11.027-1.24-12.698-7.739v1.711c0 1.198.068 2.142.2 2.822.134.68.635 1.55 1.438 2.607h-8.377c-.323-.655-.531-1.156-.632-1.5-.1-.345-.193-.886-.294-1.624-1.119 1.238-2.238 2.116-3.343 2.64-1.513.706-3.27 1.059-5.271 1.059-4.298 0-7.501-2.313-7.501-7.324 0-4.818 2.293-7.864 6.43-8.317 3.285-.36 6.11-.165 6.95-.728.77-.516 1.675-1.45 1.673-2.611-.002-1.267-.847-1.94-2.367-1.876-1.066.044-1.88.343-2.48.953-.959.973-2.09 1.605-3.04 1.547l-5.86-.01c1.035-5.92 5.976-8.304 11.674-8.304 5.345 0 10.8 2.917 10.8 9.398v8.74z"/><g transform="translate(124.258)"><mask id="d" fill="#fff"><use xlink:href="#c"/></mask><path fill="#FEFEFE" d="M16.09 20.353v-3.389c0-1.85 1.183-3.454 4.325-3.454h10.542v6.155C28.143 26.882 22.019 31 15.99 31 5.506 31 .077 21.775.077 15.279.077 8.173 5.049.143 15.594.143c7.286 0 12.772 3.74 14.736 10.744h-9.058C20.5 8.526 18.442 6.23 15.82 6.23c-4.246 0-5.9 4.765-5.9 8.943 0 4.492 1.717 9.825 6.169 9.912 2.889.056 4.835-2.4 5.34-4.731h-5.34z" mask="url(#d)"/></g><path fill="#FEFEFE" d="M88.514 11.549c-.336-1.066-1.94-1.448-3.095-1.448-1.338 0-2.4.625-3.204 1.855-.505.773-1.13 2.67-1.264 4.198 2.45-2.492 8.84-.542 7.563-4.605zm5.646 8.1H81.23c.252 2.688 1.823 4.955 4.666 4.955 2.309 0 3.55-1.443 4.016-3.306l7.44.019v-4.178c-.6 1.3-1.736 2.51-3.192 2.51zM34.516 4.89h8.064v3.726c1.167-1.56 2.334-2.66 3.515-3.325 1.18-.656 2.608-.984 4.282-.984 1.797 0 3.217.36 4.26 1.083 1.051.722 1.906 1.798 2.573 3.226 1.354-1.666 2.593-2.807 3.716-3.407 1.116-.598 2.493-.902 4.138-.902 2.42 0 4.311.812 5.666 2.446 1.362 1.625 2.036 4.17 2.036 7.634v1.596c.643-7.148 5.333-11.676 12.3-11.676 6.619 0 10.734 2.926 12.287 8.487V4.888h7.857v5.37c.905-3.709 2.707-5.52 5.622-5.52 1.24 0 2.091-.09 3.263.047v6.87c-1.267 4.562-8.308 1.142-8.308 5.552v13.218h-2.652c-3.32 0-5.782-2.14-5.782-4.765v-3.1C94.938 27.71 90.65 31 85.313 31c-7.177 0-11.902-3.984-12.547-11.486v10.911h-2.593c-3.577 0-6.066-2.223-6.066-4.91V15.014c0-1.773-.733-3.899-2.76-3.899-2.803 0-3.391 2.902-3.391 5.27v14.041h-2.6c-4.237 0-6.066-2.395-6.066-5.125v-9.81c0-1.957-.304-4.425-2.717-4.425-2.833 0-3.398 3.11-3.398 5.459v13.901h-8.659V4.888zm81.143 0h8.6v25.536h-2.606c-3.388 0-5.994-1.67-5.994-4.26V4.889z"/><g><mask id="f" fill="#fff"><use xlink:href="#e"/></mask><path fill="#FEFEFE" d="M20.32 18.118l-2.876-9.84L13.44 20.42c2.015-1.744 4.308-2.512 6.88-2.303zm2.991 7.725H11.743l-1.534 5.095H-.001L12.322.068h10.46l12.434 30.87H25.18l-1.87-5.095z" mask="url(#f)"/></g></g></g></g></g></g></g></svg>