<?xml version="1.0" encoding="UTF-8"?>
<svg width="231px" height="29px" viewBox="0 0 231 29" version="1.1" xmlns="http://www.w3.org/2000/svg" xmlns:xlink="http://www.w3.org/1999/xlink">
  <title>Icons / Logo</title>
  <g id="UPDATE---Homepage-and-Nav" stroke="none" stroke-width="1" fill="none" fill-rule="evenodd">
    <g id="homepage-residential-01" transform="translate(-102.000000, -2445.000000)" fill="#FFFFFF" fill-rule="nonzero">
      <g id="Layout-/-Desktop-/-3.-Global-Elements-/-Footer" transform="translate(0.000000, 1922.000000)">
        <g id="Sub-Footer" transform="translate(0.000000, 483.000000)">
          <g id="Logo" transform="translate(102.000000, 39.999183)">
            <g id="Emblem" transform="translate(109.098131, 0.243226)">
              <path d="M13.9656262,0 C8.48683897,0 3.9311332,2.9 1.62572565,7.27806452 L26.2917495,7.27806452 C23.9909344,2.9 19.449006,0 13.9656262,0 Z" id="Path"></path>
              <path d="M13.9656262,28.3545161 C19.3617495,28.3545161 23.8485686,25.4591935 26.1815308,21.081129 L1.73594433,21.081129 C4.07349901,25.463871 8.56950298,28.3545161 13.9656262,28.3545161 Z" id="Path"></path>
              <path d="M27.472008,10.3698387 L0.445467197,10.3698387 C0.156143141,11.5204839 0,12.7366129 0,13.9948387 C0,15.3887097 0.183697813,16.7264516 0.518946322,17.9893548 L27.3985288,17.9893548 C27.7337773,16.7264516 27.9174751,15.3887097 27.9174751,13.9948387 C27.9128827,12.7366129 27.761332,11.5251613 27.472008,10.3698387 Z" id="Path"></path>
            </g>
            <g id="Letters">
              <polygon id="Path" points="0.362803181 0.706290323 16.6200596 0.706290323 16.6200596 5.26209677 5.5522664 5.26209677 5.5522664 12.0396774 15.7107555 12.0396774 15.7107555 16.5908065 5.5522664 16.5908065 5.5522664 23.578871 17.2078926 23.578871 17.2078926 28.1346774 0.362803181 28.1346774"></polygon>
              <path d="M18.6912525,0.706290323 L24.3215905,0.706290323 L30.0254076,18.1951613 C30.535169,19.7948387 31.0495229,22.2879032 31.0495229,22.2879032 L31.1275944,22.2879032 C31.1275944,22.2879032 31.6373559,19.7995161 32.1517097,18.1951613 L37.929006,0.706290323 L43.4629026,0.706290323 L33.7590656,28.1346774 L28.431829,28.1346774 L18.6912525,0.706290323 Z" id="Path"></path>
              <polygon id="Path" points="46.0300795 0.706290323 62.287336 0.706290323 62.287336 5.26209677 51.2195427 5.26209677 51.2195427 12.0396774 61.6857256 12.0396774 61.6857256 16.5908065 51.2195427 16.5908065 51.2195427 23.578871 62.875169 23.578871 62.875169 28.1346774 46.0300795 28.1346774"></polygon>
              <path d="M72.0692445,5.26209677 L72.0692445,13.5037097 L76.2024453,13.5037097 C78.7236978,13.5037097 80.2943141,11.9601613 80.2943141,9.33145161 C80.2943141,7.64290323 79.756998,6.42209677 78.4894831,5.78129032 C77.8235785,5.44451613 76.9647913,5.26209677 75.3482505,5.26209677 L72.0692445,5.26209677 Z M66.8751889,0.706290323 L75.6880915,0.706290323 C78.4757058,0.706290323 79.7248509,0.921451613 80.8270378,1.34241935 C83.7248708,2.46032258 85.5848111,5.2433871 85.5848111,9.04145161 C85.5848111,12.2454839 83.954493,15.313871 81.1531014,16.4925806 L81.1531014,16.5720968 C81.1531014,16.5720968 81.4929423,16.9977419 82.0624056,18.0220968 L87.5411928,28.1346774 L81.7225646,28.1346774 L76.4917694,18.0595161 L72.0784294,18.0595161 L72.0784294,28.1346774 L66.8843738,28.1346774 L66.8843738,0.706290323 L66.8751889,0.706290323 Z" id="Shape"></path>
              <path d="M91.7065408,20.823871 C91.7065408,20.823871 94.6640755,23.7191935 98.3564016,23.7191935 C100.289821,23.7191935 102.09006,22.7369355 102.09006,20.6133871 C102.09006,16.0201613 89.5067594,16.7124194 89.5067594,8.27903226 C89.5067594,3.60629032 93.410338,0.247903226 98.6227634,0.247903226 C104.023479,0.247903226 106.769761,3.18064516 106.769761,3.18064516 L104.514871,7.52129032 C104.514871,7.52129032 101.915547,5.12645161 98.5814314,5.12645161 C96.4780915,5.12645161 94.7145924,6.34258065 94.7145924,8.19483871 C94.7145924,12.7506452 107.297893,11.688871 107.297893,20.4730645 C107.297893,24.8745161 103.982147,28.5977419 98.27833,28.5977419 C92.2530417,28.5977419 88.8959642,24.8324194 88.8959642,24.8324194 L91.7065408,20.823871 Z" id="Path"></path>
              <path d="M139.725149,0.706290323 L144.919205,0.706290323 L144.919205,18.2325806 C144.919205,21.7640323 147.174095,23.7519355 150.641392,23.7519355 C154.127058,23.7519355 156.404911,21.7640323 156.404911,18.1951613 L156.404911,0.706290323 L161.594374,0.706290323 L161.594374,18.2325806 C161.594374,24.3693548 157.217773,28.5977419 150.678131,28.5977419 C144.10175,28.5977419 139.725149,24.3693548 139.725149,18.2325806 L139.725149,0.706290323 Z" id="Path"></path>
              <path d="M170.816004,5.26209677 L170.816004,13.5037097 L174.949205,13.5037097 C177.470457,13.5037097 179.041074,11.9601613 179.041074,9.33145161 C179.041074,7.64290323 178.503757,6.42209677 177.236243,5.78129032 C176.570338,5.44451613 175.711551,5.26209677 174.09501,5.26209677 L170.816004,5.26209677 Z M165.626541,0.706290323 L174.439443,0.706290323 C177.227058,0.706290323 178.476203,0.921451613 179.57839,1.34241935 C182.476223,2.46032258 184.336163,5.2433871 184.336163,9.04145161 C184.336163,12.2454839 182.705845,15.313871 179.899861,16.4925806 L179.899861,16.5720968 C179.899861,16.5720968 180.239702,16.9977419 180.809165,18.0220968 L186.287952,28.1346774 L180.469324,28.1346774 L175.238529,18.0595161 L170.820596,18.0595161 L170.820596,28.1346774 L165.631133,28.1346774 L165.631133,0.706290323 L165.626541,0.706290323 Z" id="Shape"></path>
              <path d="M200.767932,0.243225806 C207.344314,0.243225806 210.719761,3.98983871 210.719761,3.98983871 L208.258211,7.96564516 C208.258211,7.96564516 205.185865,5.07032258 200.997555,5.07032258 C195.408549,5.07032258 192.221392,9.33612903 192.221392,14.2193548 C192.221392,19.1774194 195.537137,23.7566129 201.015924,23.7566129 C205.585408,23.7566129 208.749602,20.2812903 208.749602,20.2812903 L211.459145,24.1214516 C211.459145,24.1214516 207.707117,28.5977419 200.809264,28.5977419 C192.542863,28.5977419 186.862005,22.4001613 186.862005,14.3129032 C186.857416,6.34258065 192.804632,0.243225806 200.767932,0.243225806 Z" id="Path"></path>
              <polygon id="Path" points="214.104394 0.706290323 230.366243 0.706290323 230.366243 5.26209677 219.293857 5.26209677 219.293857 12.0396774 229.452346 12.0396774 229.452346 16.5908065 219.293857 16.5908065 219.293857 23.578871 230.949483 23.578871 230.949483 28.1346774 214.104394 28.1346774"></polygon>
            </g>
          </g>
        </g>
      </g>
    </g>
  </g>
</svg>